<svg id="All_glyphs" data-name="All glyphs" xmlns="http://www.w3.org/2000/svg" viewBox="0 0 31 31"><title>google_plus</title><path d="M15.5,0A15.5,15.5,0,1,0,31,15.5,15.51,15.51,0,0,0,15.5,0Zm0,30A14.5,14.5,0,1,1,30,15.5,14.51,14.51,0,0,1,15.5,30Z"/><polygon points="20.24 11.59 18.73 11.59 18.73 13.97 16.34 13.97 16.34 15.49 18.73 15.49 18.73 17.87 20.24 17.87 20.24 15.49 22.63 15.49 22.63 13.97 20.24 13.97 20.24 11.59"/><path d="M14.84,16.05c-.43-.37-.79-.69-.79-1s.27-.56.6-.86a3.07,3.07,0,0,0,1.07-2.5c0-1.16-.15-1.94-1.08-2.44a3.1,3.1,0,0,1,.61-.1c.5-.07,1.24-.15,1.24-.56V8.5H12.83s-3.7.14-3.7,3.49a2.81,2.81,0,0,0,1.18,2.55,3.39,3.39,0,0,0,1.77.48h.22a2.3,2.3,0,0,0,.47,1.59h0c-1,0-4.37.21-4.37,3s3.07,2.94,3.69,2.94h.2A5.71,5.71,0,0,0,14.63,22a3.18,3.18,0,0,0,1.86-3.09A3.79,3.79,0,0,0,14.84,16.05Zm-2.11-2c-.8,0-1.58-.8-1.87-1.9a2.73,2.73,0,0,1,0-1.68,1.46,1.46,0,0,1,.92-1,1.65,1.65,0,0,1,.31,0c.95,0,1.57.4,1.95,1.74S13.9,13.81,13,14.05A1,1,0,0,1,12.73,14.09Zm0,7.12c-1.46.11-2.66-.55-2.73-1.67a1.82,1.82,0,0,1,.66-1.48,3,3,0,0,1,1.82-.74h.24A2.11,2.11,0,0,1,15,19.16C15.1,20.28,14.15,21.1,12.71,21.21Z"/></svg>