<svg id="All_glyphs" data-name="All glyphs" xmlns="http://www.w3.org/2000/svg" viewBox="0 0 31 31"><title>linkedin</title><path d="M15.5,0A15.5,15.5,0,1,0,31,15.5,15.51,15.51,0,0,0,15.5,0Zm0,30A14.5,14.5,0,1,1,30,15.5,14.51,14.51,0,0,1,15.5,30Z"/><rect x="8.58" y="12.77" width="2.99" height="9.63"/><path d="M10.09,8.6a1.5,1.5,0,1,0,0,3,1.5,1.5,0,1,0,0-3Z"/><path d="M19.05,12.56a3.45,3.45,0,0,0-3,1.55H16l-.14-1.34h-2.6c0,.87.08,1.87.08,3.07V22.4h3V16.85a2.41,2.41,0,0,1,.09-.75A1.65,1.65,0,0,1,18,15c1.08,0,1.52.84,1.52,2.09V22.4h3V16.71C22.5,13.88,21,12.56,19.05,12.56Z"/></svg>