<svg id="All_glyphs" data-name="All glyphs" xmlns="http://www.w3.org/2000/svg" viewBox="0 0 31 31"><title>twitter</title><path d="M15.5,0A15.5,15.5,0,1,0,31,15.5,15.51,15.51,0,0,0,15.5,0Zm0,30A14.5,14.5,0,1,1,30,15.5,14.51,14.51,0,0,1,15.5,30Z"/><path d="M22.11,10a5.74,5.74,0,0,1-1.82.7,2.87,2.87,0,0,0-5,2,3.51,3.51,0,0,0,.07.66,8.2,8.2,0,0,1-5.92-3,2.89,2.89,0,0,0-.38,1.44,2.85,2.85,0,0,0,1.27,2.39,2.75,2.75,0,0,1-1.3-.36v0a2.86,2.86,0,0,0,2.31,2.81,2.74,2.74,0,0,1-.76.11,2.35,2.35,0,0,1-.54-.06,2.86,2.86,0,0,0,2.68,2,5.75,5.75,0,0,1-3.56,1.23c-.24,0-.47,0-.69,0A8.17,8.17,0,0,0,21.08,13c0-.13,0-.25,0-.38a5.92,5.92,0,0,0,1.43-1.48,5.76,5.76,0,0,1-1.65.45A2.89,2.89,0,0,0,22.11,10Z"/></svg>